<svg xmlns="http://www.w3.org/2000/svg" width="201.586" height="63.182" viewBox="0 0 201.586 63.182">
  <g id="logo" transform="translate(-52.844 -28.462)">
    <g id="Group_30" data-name="Group 30" transform="translate(52.844 28.462)">
      <g id="Group_28" data-name="Group 28" transform="translate(80.359 20.834)">
        <path id="Path_28" data-name="Path 28" d="M145.441,139.213a21.541,21.541,0,0,0-3.862-1.189,10.9,10.9,0,0,1-3.18-1.1,1.873,1.873,0,0,1-.935-1.684,2.352,2.352,0,0,1,1.055-2.044,4.955,4.955,0,0,1,2.874-.735,7.223,7.223,0,0,1,2.525.388,9.028,9.028,0,0,1,2.125,1.189,4.025,4.025,0,0,0,.6.294,1.468,1.468,0,0,0,.5.081.988.988,0,0,0,.788-.414,1.663,1.663,0,0,0,.186-1.684,2.029,2.029,0,0,0-.494-.574,10.339,10.339,0,0,0-9.982-1.3,6.171,6.171,0,0,0-2.606,2.045,4.98,4.98,0,0,0-.935,2.967,4.428,4.428,0,0,0,.747,2.646,5.408,5.408,0,0,0,2.219,1.71,19.255,19.255,0,0,0,3.822,1.176,12.922,12.922,0,0,1,3.248,1.056,1.712,1.712,0,0,1,.976,1.563,2.229,2.229,0,0,1-1.043,1.991,5.475,5.475,0,0,1-2.993.681,9.711,9.711,0,0,1-2.78-.375,7.972,7.972,0,0,1-2.4-1.2,2.182,2.182,0,0,0-1.1-.375.992.992,0,0,0-.788.414,1.624,1.624,0,0,0,.281,2.258,8.522,8.522,0,0,0,2.98,1.483,13.511,13.511,0,0,0,3.889.548,9.765,9.765,0,0,0,3.835-.708,6.008,6.008,0,0,0,2.592-1.978,4.848,4.848,0,0,0,.922-2.926,4.013,4.013,0,0,0-.789-2.539A5.723,5.723,0,0,0,145.441,139.213Z" transform="translate(-133.668 -127.455)" fill="#4b4495"/>
        <path id="Path_29" data-name="Path 29" d="M173.27,130.9a1.732,1.732,0,0,0-.736-.815,2.124,2.124,0,0,0-2.111,0,1.726,1.726,0,0,0-.735.815l-7.376,15.849a1.652,1.652,0,0,0-.161.694,1.31,1.31,0,0,0,.509,1.042,1.7,1.7,0,0,0,1.122.428,1.566,1.566,0,0,0,.828-.227,1.516,1.516,0,0,0,.59-.708l1.6-3.581h9.407l1.6,3.581a1.479,1.479,0,0,0,1.39.935,1.678,1.678,0,0,0,1.135-.428,1.325,1.325,0,0,0,.5-1.042,1.649,1.649,0,0,0-.16-.694Zm-5.292,10.824,3.527-7.937,3.528,7.937Z" transform="translate(-137.458 -127.468)" fill="#4b4495"/>
        <path id="Path_30" data-name="Path 30" d="M210.264,130.231a1.882,1.882,0,0,0-1.2-.427,1.461,1.461,0,0,0-1.417.909L201.5,144.37l-6.147-13.656a1.51,1.51,0,0,0-.6-.682,1.642,1.642,0,0,0-.842-.227,1.968,1.968,0,0,0-1.242.427,1.33,1.33,0,0,0-.547,1.1,1.688,1.688,0,0,0,.16.642l7.376,15.928a1.752,1.752,0,0,0,.735.788,2.124,2.124,0,0,0,2.111,0,1.754,1.754,0,0,0,.736-.788l7.4-15.928a1.731,1.731,0,0,0,.16-.669A1.319,1.319,0,0,0,210.264,130.231Z" transform="translate(-141.445 -127.468)" fill="#4b4495"/>
        <path id="Path_31" data-name="Path 31" d="M237.117,132.716a1.812,1.812,0,0,0,1.2-.362,1.273,1.273,0,0,0,.427-1.029,1.2,1.2,0,0,0-.427-.988,1.864,1.864,0,0,0-1.2-.348h-9.648a1.67,1.67,0,0,0-1.215.428,1.593,1.593,0,0,0-.441,1.2V147.2a1.593,1.593,0,0,0,.441,1.2,1.67,1.67,0,0,0,1.215.428h9.648a1.863,1.863,0,0,0,1.2-.348,1.2,1.2,0,0,0,.427-.989,1.275,1.275,0,0,0-.427-1.029,1.816,1.816,0,0,0-1.2-.36h-7.938V140.6h7.4a1.86,1.86,0,0,0,1.2-.348,1.2,1.2,0,0,0,.427-.989,1.234,1.234,0,0,0-.427-1.015,1.86,1.86,0,0,0-1.2-.347h-7.4v-5.185Z" transform="translate(-145.928 -127.492)" fill="#4b4495"/>
        <path id="Path_32" data-name="Path 32" d="M270.469,136.326l-3.364.506a11.662,11.662,0,0,1,.2,2.182,7.945,7.945,0,0,1-1.456,5.131,5.5,5.5,0,0,1-8.125,0,9.744,9.744,0,0,1,0-10.249,4.978,4.978,0,0,1,4.076-1.777,5.538,5.538,0,0,1,2.479.544l-1.44,2.561.309-.036,6.83-1.027-2.577-7.052-1.693,3.012a9.763,9.763,0,0,0-3.907-.755,9.385,9.385,0,0,0-4.784,1.176A7.781,7.781,0,0,0,253.9,133.9a12.608,12.608,0,0,0,.013,10.249,7.86,7.86,0,0,0,3.113,3.367,10.209,10.209,0,0,0,9.516,0,7.87,7.87,0,0,0,3.113-3.367,11.342,11.342,0,0,0,1.095-5.131A12.8,12.8,0,0,0,270.469,136.326Z" transform="translate(-149.521 -127.109)" fill="#4b4495"/>
      </g>
      <g id="Group_29" data-name="Group 29">
        <ellipse id="Ellipse_11" data-name="Ellipse 11" cx="31.591" cy="31.591" rx="31.591" ry="31.591" fill="#4b4495"/>
        <path id="Path_33" data-name="Path 33" d="M81.9,142.406c-.018-1.925-.04-4.106-.04-6.171a1.983,1.983,0,0,0-1.731-2.05c-9.224-.09-16.415-.113-24.742-.14-2.831-.009-5.8-.018-9.02-.031-.346,0-.683-.911-.865-1.4-.057-.156-.112-.3-.166-.435s-.078-.248-.117-.362a4.2,4.2,0,0,1-.2-.762.642.642,0,0,1,.13-.5,1.242,1.242,0,0,1,.818-.4H78.32a1.024,1.024,0,1,0,0-2.047H45.906c-.034,0-.068,0-.1,0a3.287,3.287,0,0,0-2.273,1.185,2.687,2.687,0,0,0-.543,2.06,6.113,6.113,0,0,0,.288,1.126c.036.108.073.221.111.346a1.062,1.062,0,0,0,.036.1c.048.115.1.247.156.406.354.954,1.012,2.729,2.777,2.736l8.373.029.648,0c8.238.026,15.363.049,24.432.135v.007c0,2.029.02,4.113.04,6.13v.061c.04,4.075.08,8.287-.038,12.39a.28.28,0,0,1-.07.059c-12.3.17-21.018.17-33.3,0a2.2,2.2,0,0,1-1.759-1.489,24.076,24.076,0,0,1-.033-3.283c.02-.559.04-1.137.04-1.712a1.024,1.024,0,0,0-2.048,0c0,.551-.02,1.139-.039,1.665a25.2,25.2,0,0,0,.043,3.531l.008.069a4.164,4.164,0,0,0,3.567,3.256,1.19,1.19,0,0,0,.123.009c6.413.088,11.566.128,16.713.128s10.3-.04,16.7-.128a2.148,2.148,0,0,0,2.1-2.02C81.977,150.783,81.936,146.54,81.9,142.406Z" transform="translate(-30.65 -110.886)" fill="#48d1cc"/>
        <path id="Path_34" data-name="Path 34" d="M97.937,154.376H90.5c-.4,0-.692-.247-.692-.468v-3.476c0-.22.3-.467.692-.467h7.436a.89.89,0,0,0,0-1.779H90.5a2.353,2.353,0,0,0-2.443,2.246v3.476a2.353,2.353,0,0,0,2.443,2.246h7.436a.89.89,0,0,0,0-1.779Z" transform="translate(-46.139 -117.724)" fill="#fff"/>
        <path id="Path_35" data-name="Path 35" d="M94.548,152.705a1,1,0,1,0,1.031,1A1.018,1.018,0,0,0,94.548,152.705Zm0,.845a.16.16,0,1,1-.187.157A.173.173,0,0,1,94.548,153.55Z" transform="translate(-47.997 -119.263)" fill="#48d1cc"/>
      </g>
    </g>
  </g>
</svg>
